<svg width="71" height="55" viewBox="0 0 71 55" fill="none" xmlns="http://www.w3.org/2000/svg">
    <g clip-path="url(#clip0_105_1090)">
        <path d="M62.883 50.1C63.871 50.1 64.406 50.834 64.406 51.742V53.465H63.744V51.849C63.744 51.255 63.451 50.734 62.836 50.734C62.242 50.734 61.942 51.234 61.942 51.836V53.465H61.281V51.835C61.281 51.235 60.981 50.734 60.372 50.734C59.758 50.734 59.484 51.254 59.484 51.849V53.465H58.824V51.749C58.824 50.834 59.344 50.099 60.326 50.099C60.98 50.099 61.454 50.433 61.621 50.941C61.801 50.433 62.262 50.1 62.883 50.1ZM56.498 52.904C57.105 52.904 57.439 52.376 57.439 51.769V50.193H58.1V51.849C58.1 52.797 57.526 53.545 56.498 53.545C55.483 53.545 54.908 52.79 54.908 51.842V50.193H55.569V51.776C55.569 52.376 55.897 52.904 56.498 52.904ZM53.044 53.538C52.436 53.538 51.969 53.298 51.714 52.811L52.222 52.531C52.389 52.857 52.656 52.978 53.017 52.978C53.391 52.978 53.678 52.824 53.678 52.537C53.678 51.849 51.802 52.37 51.802 51.121C51.802 50.547 52.309 50.126 53.024 50.126C53.631 50.126 54.045 50.406 54.252 50.787L53.745 51.075C53.605 50.787 53.338 50.687 53.037 50.687C52.73 50.687 52.463 50.847 52.463 51.107C52.463 51.776 54.339 51.288 54.339 52.523C54.339 53.144 53.739 53.538 53.044 53.538ZM48.505 54.967H47.843V51.822C47.843 50.847 48.598 50.112 49.586 50.112C49.8127 50.1085 50.0379 50.1502 50.2484 50.2346C50.4589 50.319 50.6504 50.4444 50.812 50.6035C50.9735 50.7627 51.1018 50.9523 51.1894 51.1615C51.2769 51.3707 51.322 51.5952 51.322 51.822C51.322 52.811 50.608 53.545 49.612 53.545C49.172 53.545 48.772 53.351 48.504 53.058V54.968L48.505 54.967ZM49.586 52.924C50.194 52.924 50.661 52.424 50.661 51.829C50.661 51.228 50.194 50.741 49.586 50.741C48.972 50.741 48.505 51.228 48.505 51.829C48.505 52.423 48.972 52.924 49.586 52.924ZM46.306 50.193H46.966V53.465H46.306V50.193ZM55.223 47.207C50.172 47.207 46.319 43.322 46.319 38.594C46.319 33.9 50.172 30.014 55.223 30.014C60.273 30.014 64.127 33.9 64.127 38.594C64.127 43.322 60.274 47.207 55.223 47.207ZM55.223 41.735C57.068 41.735 58.299 40.31 58.299 38.627C58.299 36.911 57.069 35.486 55.223 35.486C53.377 35.486 52.147 36.911 52.147 38.626C52.147 40.31 53.377 41.735 55.223 41.735ZM35.314 54.654C31.299 54.654 28.384 52.874 26.895 49.7L31.72 47.11C32.238 48.21 33.21 49.344 35.217 49.344C37.321 49.344 38.714 48.016 38.876 45.685C38.098 46.365 36.868 46.883 35.023 46.883C30.522 46.883 26.895 43.419 26.895 38.562C26.895 33.867 30.749 30.047 35.8 30.047C40.98 30.047 44.704 33.641 44.704 38.594V45.005C44.704 50.833 40.656 54.654 35.314 54.654ZM35.702 41.411C37.451 41.411 38.778 40.213 38.778 38.432C38.778 36.684 37.451 35.518 35.702 35.518C33.986 35.518 32.627 36.684 32.627 38.432C32.627 40.213 33.987 41.411 35.702 41.411ZM17.009 47.207C11.958 47.207 8.105 43.322 8.105 38.594C8.105 33.9 11.958 30.014 17.009 30.014C22.059 30.014 25.913 33.9 25.913 38.594C25.913 43.322 22.06 47.207 17.009 47.207ZM17.009 41.735C18.854 41.735 20.085 40.31 20.085 38.627C20.085 36.911 18.855 35.486 17.009 35.486C15.163 35.486 13.933 36.911 13.933 38.626C13.933 40.31 15.163 41.735 17.009 41.735ZM0 23.085H5.828V46.721H0V23.085ZM70.734 32C70.734 32.5304 70.5233 33.0391 70.1482 33.4142C69.7731 33.7892 69.2644 34 68.734 34C68.2036 34 67.6949 33.7892 67.3198 33.4142C66.9447 33.0391 66.734 32.5304 66.734 32C66.734 31.4695 66.9447 30.9608 67.3198 30.5857C67.6949 30.2107 68.2036 30 68.734 30C69.2644 30 69.7731 30.2107 70.1482 30.5857C70.5233 30.9608 70.734 31.4695 70.734 32Z" fill="white"/>
        <path fill-rule="evenodd" clip-rule="evenodd" d="M54.7899 9.66505C60.5363 15.4113 63.9603 23.0758 64.4059 31.1901C62.7081 29.203 60.4017 27.8321 57.8449 27.2901C56.6798 21.9054 53.8953 17.006 49.8652 13.2495C45.8351 9.49309 40.7523 7.05941 35.2991 6.27517C29.8458 5.49093 24.2832 6.39367 19.3579 8.8622C14.4326 11.3307 10.3803 15.2469 7.74494 20.0851H1.08594C3.19939 15.1149 6.50043 10.7394 10.6993 7.34257C14.8983 3.94574 19.8667 1.63142 25.1687 0.602696C30.4707 -0.426031 35.9442 -0.137715 41.1087 1.44234C46.2733 3.0224 50.9711 5.84589 54.7899 9.66505Z" fill="#FFD43E"/>
        <path fill-rule="evenodd" clip-rule="evenodd" d="M50.5469 13.908C54.2143 17.5752 56.7479 22.221 57.8449 27.29C57.0029 27.11 56.1249 27.014 55.2229 27.014C54.0029 27.014 52.8289 27.188 51.7259 27.513C50.4961 22.9642 47.7721 18.9611 43.9919 16.1478C40.2117 13.3344 35.5952 11.8743 30.8847 12.0021C26.1743 12.13 21.6438 13.8385 18.0218 16.8529C14.3999 19.8672 11.8971 24.0121 10.9159 28.621C10.1659 29.0526 9.46573 29.5654 8.8279 30.15V20.085H7.7439C9.75197 16.3983 12.5921 13.2306 16.0387 10.8336C19.4852 8.43653 23.4433 6.87623 27.5984 6.27659C31.7535 5.67696 35.9912 6.05451 39.9748 7.37926C43.9585 8.70402 47.5784 10.9395 50.5469 13.908Z" fill="#EE8E1D"/>
        <path d="M46.3061 30.8879C45.8463 27.6526 44.3426 24.656 42.0236 22.3537C39.7046 20.0514 36.6972 18.5694 33.4587 18.1329C30.2202 17.6965 26.9278 18.3296 24.082 19.9359C21.2363 21.5421 18.993 24.0338 17.6931 27.0319C21.2531 27.2239 24.3631 28.9049 26.4011 31.4429C28.5731 28.7529 31.9641 27.0469 35.8001 27.0469C39.9101 27.0469 43.4421 28.8489 45.5671 31.7849C45.7981 31.4739 46.0451 31.1749 46.3061 30.8879Z" fill="#971C1C"/>
        <path fill-rule="evenodd" clip-rule="evenodd" d="M51.725 27.5129C49.6436 28.1208 47.7689 29.2882 46.305 30.8879C45.8449 27.653 44.341 24.6568 42.0221 22.3549C39.7032 20.0529 36.6961 18.5711 33.4579 18.1347C30.2197 17.6983 26.9276 18.3312 24.082 19.9371C21.2365 21.5431 18.9931 24.0343 17.693 27.0319C17.4652 27.0198 17.2371 27.0138 17.009 27.0139C14.772 27.0139 12.692 27.5999 10.916 28.6209C11.898 24.0127 14.4011 19.8686 18.023 16.8549C21.6449 13.8413 26.175 12.1332 30.8849 12.0053C35.5949 11.8774 40.211 13.3372 43.9911 16.1499C47.7711 18.9626 50.4955 22.9648 51.726 27.5129H51.725Z" fill="#D62727"/>
    </g>
    <defs>
        <clipPath id="clip0_105_1090">
            <rect width="71" height="55" fill="white"/>
        </clipPath>
    </defs>
</svg>
